<svg width="616" height="656" viewBox="0 0 616 656" fill="none" xmlns="http://www.w3.org/2000/svg">
<path fill-rule="evenodd" clip-rule="evenodd" d="M51.5906 301.84L53.4057 285.883C55.2588 270.309 61.1203 251.246 69.0617 238.396C69.7046 237.36 70.1584 236.9 70.8391 235.902L76.7763 228.422C81.2764 223.666 86.4194 219.753 92.3188 216.762C94.55 215.611 95.7979 215.035 98.5207 214.153C100.525 213.463 103.512 212.312 105.668 212.12C104.42 214.729 100.79 242.155 100.412 245.262C99.1257 256.769 98.2938 269.197 98.2938 281.894C97.008 282.546 93.4911 283.159 91.9406 283.62C83.8858 286.036 81.2008 286.42 72.9946 289.719C70.9904 290.563 69.2508 291.291 67.3978 292.212L56.7336 298.503C54.9562 299.692 53.3679 300.881 51.5906 301.84ZM-146 39.7391L-146 23.9739C-145.66 20.8285 -144.639 17.99 -142.067 15.3817C-138.588 11.8911 -134.239 11.0088 -129.399 9.35944C-124.634 7.78674 -119.982 6.82782 -114.915 5.52362C-102.7 2.41662 -88.5948 0.460386 -74.4893 5.79093e-05L-61.2535 5.73308e-05C-52.4801 0.306942 -43.9714 1.22753 -36.1813 2.87695C-26.6894 4.83319 -11.7897 9.1676 -3.16755 14.2309C-1.61708 15.1515 0.00900522 15.8803 1.6351 16.8776C8.40424 21.0586 15.0978 25.6233 20.808 31.2236C21.4887 31.8756 21.9047 32.3359 22.5476 32.988C25.762 36.2484 28.8629 39.4322 31.5857 43.0378L34.8379 47.2572C36.3127 49.5203 37.901 51.3999 39.1868 53.8548C40.1322 55.6193 40.9641 56.77 41.9852 58.4961C45.7668 65.017 48.4518 72.305 50.7586 79.5163C53.2923 87.3798 54.8806 95.7802 55.826 104.296C57.4143 118.718 57.3008 135.404 55.2209 149.597C54.8428 152.052 54.389 152.243 55.5991 153.969L59.7589 160.452C64.6372 168.392 68.9105 176.639 72.4652 185.27C73.4484 187.725 74.8855 190.333 75.4527 192.903C77.4192 192.443 78.3267 191.33 80.1797 190.563L95.4197 185.039C102.643 182.891 110.622 181.894 120.038 181.894C126.013 181.894 130.362 183.045 133.652 186.957C134.711 188.262 135.845 190.486 136.337 192.404C136.942 194.859 136.753 196.739 136.526 199.654L131.421 227.579C130.438 233.102 128.055 251.514 127.791 256.999L126.354 293.67C126.391 295.664 126.732 296.124 126.732 298.273C126.732 304.947 127.072 315.073 127.866 321.326C129.039 330.532 129.417 342.845 130.74 352.242C130.929 353.662 131.081 355.579 131.194 356.73C131.421 358.456 131.988 359.108 131.988 360.566C131.988 363.021 131.308 365.553 130.476 367.586C126.24 378.019 110.093 378.441 104.949 366.972C103.664 364.095 98.9745 317.336 98.9745 311.084C94.7012 311.468 81.9949 316.531 78.2133 318.832L72.4652 322.285C71.2929 322.975 70.6878 323.589 69.5912 324.318C68.5323 325.046 67.9272 325.468 66.9062 326.236C65.8852 327.003 65.2423 327.501 64.2969 328.23C60.8178 330.877 57.2252 333.677 54.1621 336.822C53.0654 337.896 52.8007 338.05 51.5906 338.855L52.1578 345.069C52.4225 346.911 52.5738 349.557 52.6494 351.322C52.9898 359.262 56.0907 368.007 49.435 374.375C43.4601 380.052 33.174 379.055 28.4091 372.342C25.8754 368.736 25.7242 365.092 25.2704 359.492C24.7788 353.662 23.6821 346.911 23.493 341.003C23.077 326.12 23.1148 310.164 24.2493 295.472C25.9511 273.033 32.0395 248.484 42.5903 228.614C53.3301 208.361 55.2966 216.877 50.8721 205.791C50.3426 204.525 49.6997 202.991 49.0191 201.572C48.3005 199.999 47.9224 199.002 47.2417 197.314C44.8592 191.522 38.2036 178.941 34.7623 173.685C32.9093 174.683 30.4512 175.565 28.3335 176.447C21.7913 179.132 15.0599 181.204 8.13954 183.006C-5.24746 186.497 -15.4957 187.571 -30.1684 187.571C-40.0007 187.571 -51.4591 185.423 -58.9089 182.891C-67.9092 179.861 -76.6448 176.179 -84.5106 170.77C-85.4182 170.157 -86.2501 169.735 -87.0821 169.121C-88.7838 167.932 -90.3343 166.743 -91.9604 165.515C-95.0992 163.137 -98.011 160.605 -100.809 157.767C-103.532 155.005 -106.633 152.32 -108.94 149.29C-109.696 148.331 -110.226 147.909 -110.906 146.988C-113.894 143.114 -117.184 139.086 -119.68 134.867L-122.856 129.574C-123.84 127.617 -124.709 126.006 -125.844 124.05C-126.865 122.362 -127.583 120.291 -128.453 118.527C-131.289 112.773 -133.558 106.751 -135.601 100.498C-140.819 84.618 -143.958 68.3158 -145.282 51.5917L-146 39.7391ZM17.8962 150.21C16.5348 150.325 14.2658 151.476 12.9422 151.936C11.2027 152.55 9.6522 152.934 7.79919 153.471C4.32008 154.468 1.25697 155.465 -2.78939 156.271C-18.9748 159.57 -35.1602 160.682 -51.1944 155.504C-57.3962 153.509 -63.6738 150.594 -69.0815 146.911L-76.6826 141.465C-77.5524 140.774 -77.5902 140.736 -78.3465 139.969C-80.0861 138.243 -82.582 136.248 -85.1913 133.371C-85.9476 132.566 -86.0232 132.22 -86.7796 131.415C-90.7503 127.08 -93.5865 123.053 -96.6875 117.951L-106.558 98.0817C-107.2 96.3172 -107.73 94.8596 -108.335 93.1335C-112.154 81.7795 -114.121 73.1489 -116.012 60.7209C-116.655 56.655 -117.108 52.6657 -117.524 48.7148L-117.94 39.1253C-118.016 37.7828 -118.281 37.3992 -118.281 35.9416C-114.612 35.0593 -111.096 33.9086 -107.39 33.103C-88.6704 29.2289 -82.0147 28.4618 -62.1233 28.4618C-54.7491 28.4618 -48.0934 29.344 -41.8537 30.6865C-38.8284 31.3386 -35.9544 32.1825 -32.8534 32.9496C-29.5634 33.7552 -27.181 34.9059 -24.2691 35.9799C-19.8824 37.5909 -19.5799 38.1664 -16.4411 39.4322C-10.2014 42.0022 -4.52896 46.8353 0.689701 50.9012C4.62261 53.9315 11.0892 62.0634 13.8876 66.3212C14.7952 67.6637 15.1356 68.5843 16.0053 69.8885C16.9129 71.3077 17.2533 71.9982 18.0096 73.5325C21.7156 81.0507 21.9047 82.5466 24.4384 90.1799C25.9511 94.7829 27.8797 104.257 28.3713 109.321L29.1276 120.291C28.1822 120.061 19.7492 112.044 18.5012 110.778L13.2069 106.214C4.131 99.0023 -9.9745 88.9141 -19.6555 83.6207C-20.7522 83.007 -21.6598 82.4699 -22.7943 81.8562L-66.2453 60.0305C-75.6994 55.9261 -85.6451 64.595 -85.6451 71.5379C-85.6451 76.0641 -85.3804 77.9437 -82.6198 82.0096C-81.2206 84.0809 -78.6869 85.8838 -76.2666 86.9578C-74.8296 87.5716 -73.6195 88.0319 -72.2959 88.6072L-55.3542 96.7007C-50.8918 98.8872 -32.0593 109.129 -28.3533 111.699C-22.3405 115.803 -18.0294 118.066 -11.4872 123.053L1.06788 133.103C3.86629 135.327 16.0432 147.41 17.8962 150.21Z" fill="white" fill-opacity="0.1"/>
<path fill-rule="evenodd" clip-rule="evenodd" d="M438.414 378.019C444.805 378.019 451.612 377.175 456.339 375.564C458.797 374.758 461.369 373.684 463.411 372.38C465.226 371.23 467.646 369.388 469.046 367.777L473.168 361.64C474.151 359.607 475.399 356.73 476.042 354.237C478.159 345.76 478.84 330.378 477.63 320.789C476.571 312.695 476.079 303.873 475.21 295.856C471.995 266.128 470.672 240.85 480.126 212.082C485.647 195.319 495.782 180.82 507.996 168.43C513.026 163.329 514.917 161.909 514.917 154.123C514.917 150.786 512.799 147.103 510.644 144.917C509.66 143.958 508.11 142.73 506.711 142.155C502.589 140.467 496.878 140.813 493.475 143.383C487.802 147.64 480.58 156.309 475.701 162.063C473.281 164.94 471.239 168.2 469.008 171.269C462.919 179.554 458.381 189.374 454.6 199.002C450.478 209.435 447.679 221.211 446.129 232.45C445.94 233.984 445.826 235.519 445.562 237.206C445.335 238.894 445.486 240.505 445.221 242.193C443.406 254.468 445.751 285.461 446.885 296.086C447.452 301.226 448.095 306.635 448.625 312.12C449.268 318.947 452.142 340.006 447.679 346.143C442.536 353.24 429.452 347.486 424.914 343.995C423.023 342.538 420.981 340.965 419.355 339.316C415.535 335.365 410.619 329.995 407.783 325.392C406.989 324.087 406.611 323.397 405.703 322.17C401.241 316.147 398.442 308.974 395.114 302.3C392.392 296.892 390.047 289.565 388.27 283.62C387.816 282.2 387.4 281.165 386.946 279.63C382.635 264.249 381.16 252.013 379.799 235.595C379.307 229.612 381.009 213.233 382.219 207.134C384.299 196.508 386.795 184.656 391.144 174.875L394.169 167.625C397.535 160.874 400.522 153.854 405.325 147.985C410.203 142.002 411.792 139.739 417.577 134.79C425.935 127.694 424.536 114.499 414.59 109.934C409.258 107.441 404.644 108.784 400.182 112.159L391.673 119.869C386.303 126.428 380.971 132.949 376.66 140.237C374.996 142.999 373.521 145.837 372.084 148.791C362.933 167.318 356.655 187.418 353.706 208.131C352.647 215.572 351.966 224.28 351.701 232.066L352.193 244.379C352.798 248.445 352.987 252.166 353.554 256.155C354.084 259.723 354.651 263.597 355.256 267.279C357.979 283.313 362.857 297.16 368.643 312.043C373.446 324.394 381.803 338.855 390.047 349.097C394.434 354.544 399.085 359.3 404.417 363.711L409.825 367.854C415.044 371.69 420.83 374.298 427.145 376.293C429.527 377.022 435.276 378.019 438.414 378.019Z" fill="white" fill-opacity="0.1"/>
<path fill-rule="evenodd" clip-rule="evenodd" d="M137.963 615.801C140.837 615.801 144.241 614.458 146.018 613.307L151.539 608.244C158.573 600.994 165.191 593.4 170.75 584.961L185.271 556.653C195.066 529.035 195.973 504.562 193.78 475.18L190.263 441.732C189.469 434.674 185.271 412.196 194.952 408.399C196.087 407.938 198.81 407.44 200.322 407.631C201.948 407.861 203.953 408.13 205.428 408.552C207.129 409.012 208.15 409.588 209.701 410.24C221.31 415.15 232.996 432.334 238.441 442.691L242.412 450.746C245.135 456.231 247.404 462.368 249.521 468.122C256.215 486.381 259.392 506.365 259.392 526.081C259.392 544.033 253.719 571.305 245.702 588.029C245.21 589.027 244.757 590.216 244.303 591.252C240.71 599.69 234.281 610.2 227.701 616.76C226.869 617.604 226.302 618.294 225.395 619.061C220.668 622.897 216.205 626.579 216.205 634.289C216.205 635.9 216.848 638.355 217.378 639.544C219.155 643.495 223.315 647.83 228.155 647.83C234.433 647.83 235.756 647.293 240.408 643.495L244.908 639.544C245.929 638.662 246.307 637.742 247.366 636.706L259.24 621.669C260.866 619.445 262.001 617.335 263.438 614.918C269.035 605.521 273.308 595.394 276.711 584.961C277.657 582.122 278.602 579.859 279.434 577.021C283.745 562.867 287.111 545.03 287.111 529.994C287.111 517.566 287.224 510.469 285.485 498.233C285.031 495.165 284.653 492.94 284.123 489.986C280.153 468.697 272.627 444.992 261.661 426.273L258.144 420.213C255.232 415.265 251.488 411.122 248.009 406.634L245.778 403.911C244.341 402.261 242.639 400.689 241.051 399.116L236.134 394.475C234.168 392.595 231.71 391.022 229.517 389.45C228.987 389.104 228.685 388.798 228.08 388.414C220.894 383.389 212.461 380.09 203.612 379.4C198.091 378.978 199.112 379.477 194.801 379.438C190.15 379.4 182.435 381.279 179.259 382.852L174.796 385.46C168.216 389.718 164.662 396.546 162.657 404.486C161.182 410.47 160.124 419.868 161.031 426.504C161.22 428.153 160.993 429.764 161.145 431.375L164.132 459.3C165.002 465.744 164.888 471.421 165.834 477.865C166.439 482.161 166.741 492.786 166.741 497.619C166.741 511.505 164.472 531.796 159.481 544.685C154.338 557.88 150.254 565.36 141.896 576.752C141.064 577.903 140.686 578.21 139.816 579.245L131.194 588.643C126.845 593.016 124.274 593.822 124.274 602.26C124.274 607.899 127.828 612.54 132.329 614.381C133.539 614.88 136.337 615.801 137.963 615.801Z" fill="white" fill-opacity="0.1"/>
<path fill-rule="evenodd" clip-rule="evenodd" d="M395.228 627.538C389.366 627.538 386.114 626.349 382.144 622.283C377 617.028 376.547 615.801 373.105 609.74C371.517 606.978 371.668 606.978 370.496 603.833C364.597 587.876 367.206 569.234 372.803 554.274C376.433 544.57 379.95 539.161 385.812 531.106L394.472 521.747C395.531 520.903 395.757 520.749 396.703 519.752C400.447 515.993 411.338 509.856 416.481 507.784C420.073 506.327 426.616 504.716 431.38 504.716C431.38 511.121 430.397 517.259 429.981 523.243C429.527 530.416 426.351 551.973 425.141 558.225C424.611 561.179 424.12 563.595 423.628 566.626C422.342 574.221 416.14 600.573 414.25 606.94C412.813 611.581 410.355 616.875 407.443 619.982C405.022 622.513 406.573 621.861 402.337 624.776C400.447 626.042 398.215 627.538 395.228 627.538ZM392.77 656C404.153 656 409.636 654.005 418.334 648.098C421.548 645.95 423.704 644.032 426.389 641.347C427.183 640.503 427.296 640.388 428.015 639.429C432.364 633.791 435.086 630.338 438.15 623.012L440.494 617.91L445.07 599.767C447.49 590.599 451.083 572.494 452.747 562.33C458.154 529.342 460.045 508.245 460.159 472.341C460.197 469.503 459.781 468.16 459.818 465.59C459.894 446.948 456.982 419.599 453.995 401.341C453.314 397.083 452.482 393.938 450.1 391.444C445.94 387.11 444.011 386.534 438.414 386.534C435.086 386.534 431.91 388.299 429.679 390.485C423.628 396.354 425.595 403.374 426.691 409.856L429.074 427.693C429.868 433.408 430.208 440.734 430.927 446.105L431.721 460.604C431.721 462.905 432.061 463.673 432.099 465.552C432.137 467.201 432.061 468.928 432.061 470.577C432.099 472.61 432.439 473.262 432.439 475.525C420.603 475.525 403.245 481.202 393.413 487.224C388.043 490.485 380.177 495.855 375.828 500.381C374.807 501.455 374.202 501.724 373.219 502.683C372.273 503.565 371.442 504.409 370.572 505.329C369.588 506.365 369.324 506.979 368.303 508.014C367.168 509.165 366.828 509.626 365.845 510.853C360.891 517.029 359.265 519.215 355.37 525.889L351.815 532.602C344.251 546.219 338.05 569.809 339.411 586.265C340.016 593.668 339.411 596.545 341.604 604.677C344.554 615.571 348.071 623.779 354.386 633.023C355.823 635.133 357.298 636.706 358.886 638.777C359.378 639.429 359.492 639.544 360.059 640.043C360.399 640.35 360.361 640.273 360.664 640.542C365.58 645.03 369.248 648.98 376.471 651.896C379.08 652.931 380.933 654.044 383.807 654.773C386.228 655.425 390.009 656 392.77 656Z" fill="white" fill-opacity="0.1"/>
<path fill-rule="evenodd" clip-rule="evenodd" d="M208.15 252.703C208.15 231.146 214.73 191.522 219.949 170.348C220.819 166.743 224.865 149.788 225.924 147.257C227.626 143.268 230.046 139.202 232.655 135.903C236.399 131.185 241.996 127.694 248.236 129.497C261.245 133.256 270.207 150.977 271.682 164.786C272.552 173.072 272.098 177.598 270.888 186.037C270.207 190.831 267.9 200.114 265.82 204.41C264.005 208.246 262.417 212.465 259.959 216.263C256.744 221.134 256.858 221.365 252.736 226.735C247.82 233.102 238.101 242.001 230.727 245.722C219.117 251.552 209.247 252.204 208.15 252.703ZM198.658 370.194C203.688 370.194 206.486 369.197 209.285 366.358C211.932 363.711 213.482 361.218 213.861 357.075C214.163 353.47 212.915 349.25 212.197 345.415C211.44 341.272 211.062 337.666 210.457 333.332L207.091 295.089C207.016 290.486 207.091 285.806 207.091 281.203C218.701 280.206 226.34 278.441 236.815 273.954L241.277 272.036C246.647 269.312 247.744 268.737 253.001 265.093C255.723 263.213 261.093 259.071 263.324 256.731C264.686 255.311 266.614 253.969 268.241 252.089C277.354 241.618 283.783 232.872 289.607 219.984C290.287 218.449 290.779 217.222 291.498 215.496C296.262 203.912 300.12 189.949 300.12 173.685C300.12 160.222 297.019 145.991 291.573 135.02C288.51 128.883 283.594 121.135 278.791 116.302C270.888 108.323 258.9 100.728 247.101 100.728C236.929 100.728 229.29 102.953 221.008 108.4C215.6 111.967 209.928 118.718 206.26 124.05C204.86 126.083 200.549 133.755 199.604 136.21L197.184 145.492C195.255 153.471 192.948 161.411 191.095 169.926C190.15 174.222 189.62 178.097 188.637 182.393C187.616 186.804 187.011 190.563 186.292 195.319C185.687 199.385 184.742 203.873 184.061 208.361C180.242 233.601 179.145 259.454 179.032 286.535C178.994 289.258 179.372 290.409 179.372 292.941C179.372 295.089 179.259 297.582 179.372 299.692C179.448 301.264 179.675 301.188 179.712 302.875C180.053 314.498 181.263 320.942 182.17 331.759C182.889 340.16 184.25 347.793 185.498 355.771C186.217 360.489 186.822 362.868 189.431 365.668C191.473 367.816 194.688 370.194 198.658 370.194Z" fill="white" fill-opacity="0.1"/>
<path fill-rule="evenodd" clip-rule="evenodd" d="M533.863 545.299L537.644 520.289C538.06 517.144 538.136 514.497 538.59 511.275C538.968 508.513 539.271 505.099 539.46 502.568C540.027 495.817 540.897 486.304 540.897 479.783C540.897 477.635 541.237 477.213 541.237 475.18C543.43 474.681 545.586 473.991 547.628 473.492C549.973 472.878 552.015 472.303 554.208 471.574C556.137 470.922 558.217 470.385 560.334 469.618C562.49 468.889 564.305 468.045 566.271 467.125C567.255 466.664 568.125 466.319 568.994 465.936C569.41 465.744 569.977 465.514 570.431 465.284L582.533 458.302C584.386 457.152 585.709 455.886 587.6 454.889C587.6 458.302 587.146 460.182 586.881 463.097C586.465 468.084 584.159 481.662 582.911 486.112C577.73 503.949 575.612 511.927 564.608 526.311L560.145 531.029C559.238 531.758 558.708 532.487 557.838 533.292C555.116 535.747 550.313 538.816 547.099 540.58C545.435 541.501 542.636 542.537 540.859 543.15L533.863 545.299ZM616 431.107L616 440.236C615.962 446.105 615.849 451.283 615.622 453.431L614.828 463.289C612.407 480.243 612.483 482.084 608.21 498.962C606.773 504.716 606.622 504.562 604.92 509.856C602.689 516.76 599.625 523.166 596.26 529.533C591.155 539.161 582.57 549.748 574.062 556.499L566.045 562.291C556.553 567.47 558.065 567.048 546.569 570.998C536.623 574.412 526.716 574.834 516.316 574.834C507.807 574.834 500.547 566.817 502.816 557.957C503.042 557.113 503.156 556.307 503.307 555.617L509.358 519.368C511.929 500.995 512.837 486.381 512.837 467.355L512.459 453.469C512.497 451.398 512.194 450.861 512.118 449.212L511.06 431.413C510.417 423.205 508.942 414.306 508.261 406.135C507.77 400.228 506.37 394.053 509.207 388.913C510.039 387.378 510.908 386.266 512.156 385.154C517.261 380.819 523.955 379.63 529.476 383.888C531.329 385.307 533.106 387.302 534.128 389.526C535.565 392.595 537.266 411.506 537.985 417.259L540.556 445.644C542.031 445.529 544.565 444.685 545.851 444.263C556.628 440.926 565.855 435.825 574.78 428.767L586.995 418.333C587.789 417.336 587.638 417.489 587.6 415.763L586.617 403.911C586.352 401.724 586.352 400.152 586.087 398.042C585.028 390.102 585.18 386.611 591.533 381.318C597.054 376.753 607 378.134 611.538 385.384C613.618 388.798 614.071 394.935 614.563 399.768C615.13 405.292 615.206 411.045 615.66 416.454C615.849 418.87 615.962 424.701 616 431.107Z" fill="white" fill-opacity="0.1"/>
<path fill-rule="evenodd" clip-rule="evenodd" d="M91.6003 567.393C97.4618 567.393 101.697 567.048 107.256 565.82C111.227 564.9 115.198 563.442 118.412 561.793C125.673 558.11 132.366 553.392 137.85 547.37C138.644 546.488 138.757 546.104 139.627 545.222C147.758 536.745 155.85 519.944 155.85 507.938C155.85 501.839 156.304 494.397 154.186 488.951C148.022 473.109 143.106 466.434 127.299 459.3C115.235 453.815 103.286 454.927 90.8061 456.576L76.8897 457.382C66.944 457.382 61.1959 454.812 56.3554 446.488C55.3722 444.8 55.0318 444.187 54.3511 442.115C51.9309 434.635 50.7586 428.23 54.2755 420.942C54.994 419.446 55.7882 418.257 56.9605 417.259C58.2084 416.224 59.4563 415.341 60.969 414.536C67.3221 411.275 74.2047 410.47 83.1672 411.122C91.9406 411.774 105.025 415.495 112.664 420.712C115.235 422.438 117.958 424.624 122.156 424.624C135.467 424.624 143.106 406.251 128.66 397.39C123.971 394.513 121.21 392.365 115.538 390.063C100.222 383.849 93.3776 382.622 75.4527 382.622C64.6372 382.622 51.5527 385.997 43.2331 392.288C42.023 393.209 40.8129 393.784 39.754 394.82C32.8336 401.456 28.3713 407.708 26.0645 417.221C22.661 431.03 23.8711 440.734 29.1276 454.198C32.2664 462.215 38.4683 470.999 45.2752 476.254C55.9394 484.501 67.9272 485.92 81.0873 485.537L91.865 484.693C94.0583 484.386 96.4786 484.616 98.9745 484.424C101.281 484.232 103.361 483.734 106.008 483.734C117.958 483.734 128.131 489.833 128.131 502.606C128.131 510.776 125.635 517.029 120.908 523.396C117.164 528.459 112.777 532.64 106.954 535.594C101.281 538.432 97.008 538.893 90.5792 538.893C79.5747 538.893 69.3642 533.216 62.0279 525.813C59.3807 523.128 56.0529 518.755 54.2755 515.533C52.0822 511.505 50.4939 505.099 48.8678 502.875C40.0565 490.83 23.1526 497.274 23.1526 511.122C23.1526 513.883 23.8711 515.418 24.6275 517.489C25.2703 519.292 25.9889 521.248 26.783 523.128C28.8251 527.692 32.342 534.213 35.3673 537.934C42.1743 546.258 45.5021 550.477 55.41 556.768C65.3935 563.135 78.5158 567.393 91.6003 567.393Z" fill="white" fill-opacity="0.1"/>
<path fill-rule="evenodd" clip-rule="evenodd" d="M530.006 301.495L534.241 301.495C551.485 301.495 574.062 294.168 582.797 309.55C587.865 318.487 590.55 334.252 580.074 341.233C573.003 345.913 565.137 345.606 556.704 345.606C546.267 345.606 534.695 341.425 526.791 336.094C523.577 333.907 521.383 332.104 516.694 332.104C509.698 332.104 503.005 338.51 503.005 346.68C503.005 354.505 508.753 358.303 514.274 361.909C515.446 362.676 516.467 363.098 517.677 363.826C522.858 367.048 535.111 371.114 541.199 372.342C553.981 374.912 569.675 374.874 582.532 371.114C589.68 369.043 593.84 366.627 599.02 362.561C600.609 361.295 603.974 357.843 605.147 356.308C608.399 352.012 606.584 354.505 608.777 350.746C612.861 343.842 615.319 334.713 615.319 325.698C615.319 315.725 611.538 303.259 606.735 295.204C605.941 293.861 605.147 292.711 604.239 291.368C596.789 280.474 582.457 271.23 565.477 271.23L559.843 271.23C547.666 271.23 525.619 276.6 517.45 268.276C515.673 266.474 514.35 265.4 513.139 263.06C508.261 253.393 512.686 242.193 518.018 234.138C523.539 225.737 533.825 217.836 545.472 217.836C558.103 217.836 572.587 223.935 579.999 234.061C584.612 240.313 585.785 242.001 588.507 250.018C588.999 251.552 589.604 252.895 590.474 254.046C600.306 266.742 616 258.572 616 246.681C616 238.932 610.517 228.691 606.735 222.937C605.752 221.403 604.731 220.022 603.672 218.603C602.537 217.03 601.327 215.726 600.231 214.268C598.831 212.427 594.369 208.208 592.365 206.597C589.907 204.64 584.007 200.268 581.133 198.733C566.234 190.64 549.254 186.65 532.464 191.138C520.4 194.36 511.627 199.27 502.74 208.323C497.559 213.539 492.945 220.175 489.655 226.735C483.151 239.546 480.088 261.487 487.689 274.26C489.353 277.022 489.05 277.406 491.887 281.778C493.853 284.77 496.16 287.149 498.845 289.335C502.475 292.289 502.4 292.48 507.013 295.281C512.194 298.426 522.783 301.495 530.006 301.495Z" fill="white" fill-opacity="0.1"/>
<path fill-rule="evenodd" clip-rule="evenodd" d="M303.637 374.797C316.267 374.797 331.243 372.342 343.155 369.312L360.248 363.865C374.353 357.881 370.874 336.362 355.218 336.362C351.474 336.362 326.553 345.99 306.775 345.99C296.905 345.99 289.266 345.875 280.871 341.272C279.359 340.428 278.791 339.776 277.43 338.702C270.736 333.37 270.547 320.597 275.539 311.813C275.955 311.122 276.711 309.933 277.241 309.243C282.384 302.684 299.817 288.721 305.187 281.702C305.943 280.705 306.435 280.359 307.229 279.515C307.872 278.748 308.439 277.943 309.082 277.137C316.305 267.778 320.314 261.18 325.381 250.939C325.835 250.018 326.364 249.021 326.78 248.1C330.373 240.007 334.646 228.154 336.953 219.6C338.201 215.112 339.146 210.701 340.319 205.945C341.529 201.188 342.247 196.087 343.193 191.407C344.176 186.459 348.6 153.279 348.563 145.224C348.525 139.508 349.243 134.905 349.243 128.116C349.243 118.565 336.953 109.551 326.024 118.795C325.381 119.37 324.398 120.675 323.982 121.365C321.259 125.891 321.751 130.878 321.524 137.744C321.335 144.725 319.028 165.745 318.12 172.036C315.814 188.223 313.242 202.607 308.137 218.142C305.338 226.658 301.557 236.478 296.981 244.188C292.859 251.13 292.594 251.667 287.716 258.303C285.258 261.679 279.585 267.778 276.674 270.616L266.841 279.515C260.715 285.806 259.618 285.768 253.001 293.938C242.299 307.018 241.24 330.838 248.387 346.105C252.433 354.697 260.904 362.983 269.148 367.049C270.623 367.777 272.098 368.583 273.951 369.312C282.611 372.687 293.124 374.797 303.637 374.797Z" fill="white" fill-opacity="0.1"/>
<path fill-rule="evenodd" clip-rule="evenodd" d="M284.653 420.021C289.493 420.021 292.065 418.909 296.981 417.221C305.074 414.459 321.41 410.777 329.957 410.777C341.302 410.777 343.949 410.316 355.105 414.076C360.739 415.993 365.807 421.862 366.979 427.309C368.378 433.983 366.639 441.924 362.517 446.987C358.773 451.59 356.391 453.316 352.306 456.96C351.399 457.765 350.794 458.571 349.886 459.453L341.983 466.741C335.629 473.147 335.402 473.684 330.033 479.898L327.726 482.89C326.137 484.885 324.927 486.764 323.49 488.912C317.553 497.965 313.696 505.483 309.725 515.571C303.183 532.257 302.2 537.627 298.002 554.926C296.452 561.409 292.935 583.081 292.405 589.832C291.46 602.49 289.569 614.957 289.569 627.884C289.569 634.596 295.544 641.769 302.918 641.769C307.645 641.769 310.141 641.079 313.355 637.78C314.49 636.591 315.36 635.747 316.154 634.174C318.309 629.801 317.478 622.168 318.045 616.913C318.461 613.384 318.839 608.743 319.066 605.099C319.293 601.34 319.822 597.197 320.125 593.361C320.768 585.843 323.831 568.16 325.457 560.335C327.045 552.74 328.709 547.6 330.789 540.12C333.36 530.876 339.335 517.336 344.403 509.089C345.31 507.593 345.84 506.442 346.785 505.099C347.693 503.795 348.449 502.759 349.395 501.302C351.248 498.463 354.235 495.088 356.542 492.556C358.886 489.986 360.626 487.339 364.294 484.386L383.883 465.821C387.778 461.141 391.182 456.154 393.186 449.595C396.098 439.967 396.211 426.542 393.035 416.185C391.711 411.736 389.102 407.325 386.417 403.681C385.396 402.3 384.791 401.417 383.58 400.152C376.811 393.401 373.068 391.137 364.483 387.455C363.424 387.033 363.311 386.88 362.252 386.534C347.201 381.97 344.592 382.277 328.898 382.277C317.137 382.277 304.28 385.46 294.788 387.915C291.762 388.682 282.346 391.444 279.85 392.71C277.657 393.822 275.804 395.318 274.442 397.16C269.224 404.217 271.531 414.728 279.51 418.487C280.644 419.024 283.254 420.021 284.653 420.021Z" fill="white" fill-opacity="0.1"/>
<path fill-rule="evenodd" clip-rule="evenodd" d="M480.882 568.812C484.361 568.812 488.823 566.587 490.601 564.784L493.399 560.872C495.441 556.959 497.899 536.284 498.391 531.029C499.979 514.075 501.946 497.735 501.946 479.092C501.946 473.991 502.362 470.692 501.946 465.897C501.643 461.87 501.908 456.231 501.946 452.05L501.227 438.893C500.584 426.082 499.412 413.577 497.672 400.842C496.841 394.973 495.366 391.061 489.882 388.069C482.281 383.964 472.26 388.337 470.256 397.121C469.235 401.648 471.239 411.812 471.73 417.911C474.605 453.239 475.55 478.977 471.806 514.382C470.709 524.93 469.802 533.369 468.1 543.726C466.777 551.743 465.075 558.647 470.974 564.631C473.394 567.086 477.1 568.812 480.882 568.812Z" fill="white" fill-opacity="0.1"/>
<path fill-rule="evenodd" clip-rule="evenodd" d="M155.132 370.539C164.056 370.539 169.54 364.402 169.54 355.234C169.54 352.242 168.821 349.941 168.368 347.141C167.082 339.162 165.002 321.057 164.624 313.232C164.17 303.719 163.565 294.36 163.565 284.732L165.04 252.051C165.38 248.752 165.758 245.262 166.061 241.694C166.59 235.25 167.649 227.809 168.859 221.786L172.679 202.531C172.679 196.47 169.124 191.599 164.019 189.604C158.195 187.264 153.09 188.07 148.741 192.481C144.581 196.662 143.295 207.441 142.274 213.655C141.556 217.721 140.799 221.595 140.157 225.392L136.224 262.715C135.581 270.233 135.845 282.891 135.845 290.447C135.845 306.826 137.434 322.093 139.06 337.014C139.892 344.417 141.026 351.667 142.161 358.802C143.22 365.476 148.93 370.539 155.132 370.539Z" fill="white" fill-opacity="0.1"/>
<path fill-rule="evenodd" clip-rule="evenodd" d="M467.533 628.958C473.243 628.958 478.348 625.122 480.39 619.905C480.958 618.447 481.147 617.297 481.638 615.839C482.054 614.458 482.546 612.924 482.962 611.466C484.096 607.362 485.571 598.079 486.781 592.939C490.374 577.404 472.714 568.62 463.184 578.977C460.159 582.276 460.196 584.424 458.986 589.295L455.054 607.4C453.806 612.464 453.503 609.932 453.503 615.801C453.503 619.637 455.81 622.974 457.776 624.968C459.781 626.963 463.751 628.958 467.533 628.958Z" fill="white" fill-opacity="0.1"/>
<path fill-rule="evenodd" clip-rule="evenodd" d="M166.363 182.239C176.763 182.239 179.599 172.688 181.225 164.173C181.452 162.83 181.641 161.257 181.981 159.608C182.284 157.959 182.7 156.693 183.078 155.043C185.385 145.837 188.864 138.012 180.128 130.916C173.737 125.738 165.38 128.039 161.598 132.527C159.292 135.327 157.93 139.278 156.985 143.152C155.17 150.325 154.527 155.005 153.052 161.986C151.993 167.241 150.783 173.647 156.228 178.288C158.081 179.823 157.779 180.13 160.54 181.05C162.09 181.549 164.51 182.239 166.363 182.239Z" fill="white" fill-opacity="0.1"/>
</svg>
