<svg width="119" height="101" viewBox="0 0 119 101" fill="none" xmlns="http://www.w3.org/2000/svg">
<path fill-rule="evenodd" clip-rule="evenodd" d="M30.8573 46.4723L31.1408 44.0155C31.4302 41.6178 32.3456 38.6826 33.5858 36.7042C33.6862 36.5447 33.757 36.4739 33.8633 36.3203L34.7905 35.1687C35.4933 34.4364 36.2965 33.834 37.2178 33.3733C37.5662 33.1962 37.7611 33.1076 38.1863 32.9718C38.4993 32.8654 38.9659 32.6883 39.3025 32.6588C39.1076 33.0603 38.5406 37.2829 38.4816 37.7613C38.2808 39.533 38.1509 41.4465 38.1509 43.4013C37.9501 43.5017 37.4008 43.5962 37.1587 43.6671C35.9008 44.0391 35.4815 44.0982 34.2 44.6061C33.8869 44.736 33.6153 44.8482 33.3259 44.9899L31.6605 45.9585C31.3829 46.1416 31.1349 46.3246 30.8573 46.4723ZM-4.14741e-06 6.11835L-4.25351e-06 3.69109C0.0531471 3.20682 0.212601 2.76978 0.614189 2.36819C1.15751 1.83077 1.83667 1.69495 2.5926 1.441C3.33672 1.19886 4.06312 1.05122 4.85449 0.850426C6.76203 0.372062 8.96486 0.0708614 11.1677 -8.11755e-06L13.2347 -8.2079e-06C14.6048 0.0472406 15.9336 0.188979 17.1502 0.442924C18.6325 0.744117 20.9594 1.41146 22.3059 2.19102C22.548 2.33276 22.8019 2.44497 23.0559 2.59852C24.113 3.24225 25.1583 3.94503 26.0501 4.80727C26.1564 4.90767 26.2213 4.97853 26.3217 5.07892C26.8237 5.58092 27.308 6.0711 27.7332 6.62623L28.2411 7.27586C28.4714 7.6243 28.7195 7.91369 28.9202 8.29166C29.0679 8.56332 29.1978 8.74049 29.3573 9.00625C29.9478 10.0102 30.3671 11.1323 30.7274 12.2426C31.1231 13.4533 31.3711 14.7466 31.5188 16.0577C31.7668 18.2783 31.7491 20.8473 31.4243 23.0324C31.3652 23.4104 31.2943 23.4399 31.4833 23.7056L32.133 24.7037C32.8948 25.9262 33.5621 27.1959 34.1173 28.5247C34.2708 28.9027 34.4952 29.3043 34.5838 29.7C34.8909 29.6291 35.0327 29.4578 35.322 29.3397L37.702 28.4893C38.83 28.1586 40.0761 28.005 41.5467 28.005C42.4798 28.005 43.1589 28.1822 43.6727 28.7846C43.8381 28.9854 44.0152 29.3279 44.092 29.6232C44.1865 30.0012 44.157 30.2905 44.1215 30.7394L43.3243 35.0388C43.1707 35.8892 42.7987 38.7239 42.7573 39.5685L42.5329 45.2144C42.5388 45.5215 42.592 45.5923 42.592 45.923C42.592 46.9506 42.6451 48.5098 42.7691 49.4724C42.9522 50.8898 43.0113 52.7855 43.218 54.2324C43.2475 54.4509 43.2711 54.7462 43.2888 54.9234C43.3243 55.1892 43.4129 55.2896 43.4129 55.514C43.4129 55.8919 43.3066 56.2817 43.1766 56.5947C42.5152 58.2011 39.9935 58.266 39.1903 56.5002C38.9895 56.0573 38.2572 48.8582 38.2572 47.8956C37.5898 47.9546 35.6055 48.7342 35.0149 49.0885L34.1173 49.62C33.9342 49.7263 33.8397 49.8208 33.6684 49.933C33.5031 50.0453 33.4086 50.1102 33.2491 50.2283C33.0897 50.3464 32.9893 50.4232 32.8416 50.5354C32.2983 50.9429 31.7373 51.374 31.2589 51.8583C31.0876 52.0237 31.0463 52.0473 30.8573 52.1713L30.9459 53.1281C30.9872 53.4115 31.0109 53.819 31.0227 54.0907C31.0758 55.3132 31.5601 56.6597 30.5207 57.64C29.5876 58.5141 27.9812 58.3605 27.2371 57.327C26.8414 56.7719 26.8178 56.2108 26.747 55.3486C26.6702 54.4509 26.4989 53.4115 26.4694 52.502C26.4044 50.2106 26.4103 47.7538 26.5875 45.4919C26.8533 42.0371 27.8041 38.2574 29.4518 35.1982C31.129 32.08 31.4361 33.3911 30.7451 31.6843C30.6624 31.4894 30.562 31.2532 30.4557 31.0347C30.3435 30.7925 30.2845 30.639 30.1782 30.3791C29.8061 29.4874 28.7667 27.5503 28.2293 26.7412C27.9399 26.8947 27.556 27.0306 27.2253 27.1664C26.2036 27.5798 25.1524 27.8987 24.0717 28.1763C21.981 28.7137 20.3806 28.8791 18.0892 28.8791C16.5537 28.8791 14.7643 28.5484 13.6008 28.1586C12.1953 27.692 10.8311 27.1251 9.60268 26.2924C9.46094 26.1979 9.33102 26.1329 9.20109 26.0384C8.93533 25.8553 8.6932 25.6723 8.43925 25.4833C7.94908 25.1171 7.49434 24.7273 7.05732 24.2903C6.63211 23.8651 6.14784 23.4517 5.78759 22.9851C5.66948 22.8375 5.5868 22.7725 5.48049 22.6308C5.01394 22.0343 4.50015 21.4142 4.11037 20.7646L3.61429 19.9496C3.46074 19.6484 3.32491 19.4004 3.14774 19.0992C2.98828 18.8393 2.87608 18.5204 2.74024 18.2487C2.29732 17.3629 1.94297 16.4357 1.62407 15.473C0.809078 13.0281 0.318904 10.5181 0.112204 7.94321L-4.14741e-06 6.11835ZM25.5953 23.1269C25.3827 23.1446 25.0284 23.3218 24.8217 23.3926C24.55 23.4871 24.3079 23.5462 24.0185 23.6289C23.4752 23.7824 22.9968 23.936 22.3649 24.06C19.8373 24.5679 17.3096 24.7392 14.8056 23.9419C13.8371 23.6348 12.8567 23.1859 12.0122 22.619L10.8252 21.7804C10.6893 21.6741 10.6834 21.6682 10.5653 21.55C10.2936 21.2843 9.90387 20.9772 9.49638 20.5343C9.37826 20.4102 9.36645 20.3571 9.24834 20.2331C8.62824 19.5657 8.18531 18.9456 7.70104 18.1602L6.15965 15.101C6.05925 14.8293 5.97657 14.6049 5.88208 14.3391C5.2856 12.591 4.97851 11.2622 4.68322 9.34879C4.58283 8.72278 4.51196 8.10858 4.44699 7.50029L4.38203 6.02385C4.37022 5.81715 4.32888 5.75809 4.32888 5.53368C4.90173 5.39784 5.45096 5.22066 6.02972 5.09665C8.95305 4.50017 9.99245 4.38206 13.0989 4.38206C14.2505 4.38206 15.2899 4.51789 16.2643 4.72459C16.7368 4.82499 17.1856 4.95491 17.6699 5.07303C18.1837 5.19704 18.5557 5.37421 19.0105 5.53957C19.6955 5.78762 19.7428 5.8762 20.233 6.0711C21.2074 6.46678 22.0932 7.2109 22.9082 7.83691C23.5224 8.30347 24.5323 9.55548 24.9693 10.211C25.1111 10.4177 25.1642 10.5595 25.3 10.7603C25.4418 10.9788 25.4949 11.0851 25.6131 11.3213C26.1918 12.4788 26.2213 12.7092 26.617 13.8844C26.8533 14.5931 27.1544 16.0518 27.2312 16.8314L27.3493 18.5204C27.2017 18.485 25.8847 17.2507 25.6898 17.0558L24.863 16.353C23.4457 15.2427 21.2428 13.6895 19.731 12.8745C19.5597 12.78 19.418 12.6973 19.2408 12.6029L12.4551 9.24248C10.9787 8.61056 9.42551 9.94526 9.42551 11.0142C9.42551 11.7111 9.46685 12.0005 9.89796 12.6265C10.1165 12.9454 10.5122 13.223 10.8901 13.3883C11.1145 13.4828 11.3035 13.5537 11.5102 13.6423L14.156 14.8884C14.8529 15.225 17.7939 16.8018 18.3727 17.1975C19.3117 17.8294 19.9849 18.1779 21.0066 18.9456L22.9673 20.4929C23.4043 20.8355 25.306 22.6958 25.5953 23.1269Z" fill="white"/>
<path fill-rule="evenodd" clip-rule="evenodd" d="M91.2668 58.2011C92.2649 58.2011 93.3279 58.0712 94.0661 57.8231C94.45 57.6991 94.8516 57.5337 95.1705 57.3329C95.4539 57.1558 95.8319 56.8723 96.0504 56.6242L96.6941 55.6793C96.8477 55.3663 97.0426 54.9234 97.143 54.5395C97.4737 53.2344 97.58 50.8661 97.391 49.3897C97.2257 48.1436 97.1489 46.7853 97.0131 45.551C96.5111 40.974 96.3044 37.0821 97.7808 32.6528C98.643 30.072 100.226 27.8397 102.133 25.9321C102.919 25.1466 103.214 24.9281 103.214 23.7293C103.214 23.2155 102.883 22.6485 102.547 22.3119C102.393 22.1642 102.151 21.9752 101.933 21.8867C101.289 21.6268 100.397 21.68 99.8655 22.0756C98.9797 22.7312 97.8517 24.0659 97.0898 24.9517C96.7119 25.3947 96.393 25.8967 96.0445 26.3691C95.0937 27.6448 94.385 29.1566 93.7944 30.639C93.1507 32.2453 92.7137 34.0584 92.4716 35.7888C92.442 36.025 92.4243 36.2612 92.383 36.5211C92.3475 36.7809 92.3712 37.029 92.3298 37.2888C92.0464 39.1787 92.4125 43.9505 92.5897 45.5864C92.6783 46.3778 92.7787 47.2105 92.8613 48.055C92.9617 49.1062 93.4106 52.3485 92.7137 53.2934C91.9105 54.386 89.8671 53.5001 89.1585 52.9627C88.8632 52.7383 88.5443 52.4961 88.2903 52.2422C87.6938 51.6339 86.9261 50.8071 86.4832 50.0984C86.3592 49.8976 86.3001 49.7913 86.1584 49.6023C85.4615 48.6751 85.0245 47.5707 84.5048 46.5431C84.0795 45.7104 83.7134 44.5824 83.4358 43.667C83.365 43.4485 83.3 43.2891 83.2291 43.0528C82.5559 40.6846 82.3256 38.8007 82.113 36.2731C82.0362 35.3518 82.3019 32.83 82.4909 31.891C82.8157 30.2551 83.2055 28.4302 83.8847 26.9243L84.3571 25.8081C84.8827 24.7687 85.3493 23.6879 86.0993 22.7843C86.8611 21.863 87.1092 21.5146 88.0128 20.7528C89.3179 19.6602 89.0994 17.6286 87.5462 16.9258C86.7135 16.542 85.993 16.7487 85.2961 17.2684L83.9674 18.4554C83.1287 19.4653 82.296 20.4693 81.6228 21.5914C81.3629 22.0166 81.1326 22.4536 80.9082 22.9084C79.479 25.7608 78.4987 28.8554 78.038 32.0445C77.8727 33.1903 77.7664 34.5309 77.725 35.7297L77.8018 37.6255C77.8963 38.2515 77.9258 38.8243 78.0144 39.4385C78.0971 39.9878 78.1857 40.5842 78.2801 41.1512C78.7054 43.6198 79.4672 45.7518 80.3708 48.0432C81.1208 49.9449 82.426 52.1713 83.7134 53.7482C84.3985 54.5868 85.1249 55.3191 85.9576 55.9982L86.8021 56.6361C87.6171 57.2266 88.5206 57.6282 89.5069 57.9353C89.879 58.0475 90.7766 58.2011 91.2668 58.2011Z" fill="white"/>
<path fill-rule="evenodd" clip-rule="evenodd" d="M44.346 94.8108C44.7948 94.8108 45.3263 94.6041 45.6039 94.4269L46.4661 93.6473C47.5646 92.5312 48.5981 91.3618 49.4662 90.0626L51.734 85.7041C53.2636 81.452 53.4053 77.6841 53.0628 73.1603L52.5135 68.0105C52.3895 66.9239 51.734 63.4631 53.2459 62.8784C53.423 62.8076 53.8482 62.7308 54.0845 62.7603C54.3384 62.7957 54.6514 62.8371 54.8817 62.9021C55.1475 62.9729 55.3069 63.0615 55.5491 63.1619C57.3621 63.9178 59.187 66.5636 60.0374 68.1582L60.6575 69.3984C61.0827 70.2429 61.4371 71.1878 61.7678 72.0737C62.8131 74.8848 63.3092 77.9617 63.3092 80.9972C63.3092 83.7611 62.4233 87.9601 61.1713 90.535C61.0945 90.6886 61.0237 90.8716 60.9528 91.0311C60.3918 92.3304 59.3878 93.9485 58.3602 94.9584C58.2303 95.0883 58.1417 95.1947 58 95.3128C57.2617 95.9033 56.5649 96.4703 56.5649 97.6573C56.5649 97.9054 56.6653 98.2834 56.7479 98.4664C57.0255 99.0747 57.6751 99.7421 58.4311 99.7421C59.4114 99.7421 59.6181 99.6594 60.3445 99.0747L61.0473 98.4664C61.2068 98.3306 61.2658 98.1889 61.4312 98.0294L63.2856 95.7144C63.5395 95.3718 63.7167 95.047 63.9411 94.6749C64.8151 93.228 65.4825 91.6689 66.014 90.0626C66.1616 89.6255 66.3093 89.2771 66.4392 88.8401C67.1125 86.6609 67.6381 83.9147 67.6381 81.5996C67.6381 79.6862 67.6558 78.5936 67.3841 76.7097C67.3133 76.2372 67.2542 75.8947 67.1715 75.4399C66.5514 72.1623 65.3762 68.5125 63.6635 65.6305L63.1143 64.6974C62.6596 63.9356 62.0749 63.2977 61.5316 62.6068L61.1831 62.1875C60.9587 61.9335 60.693 61.6914 60.4449 61.4492L59.6772 60.7346C59.3701 60.4453 58.9862 60.2031 58.6437 59.961C58.561 59.9078 58.5137 59.8606 58.4193 59.8015C57.2972 59.0279 55.9802 58.52 54.5983 58.4137C53.736 58.3487 53.8955 58.4255 53.2222 58.4196C52.4958 58.4137 51.2911 58.7031 50.795 58.9452L50.0981 59.3468C49.0705 60.0023 48.5154 61.0535 48.2024 62.276C47.9721 63.1973 47.8067 64.6442 47.9484 65.6659C47.978 65.9199 47.9425 66.1679 47.9662 66.416L48.4327 70.7153C48.5685 71.7075 48.5508 72.5816 48.6985 73.5737C48.793 74.2352 48.8402 75.8711 48.8402 76.6152C48.8402 78.7531 48.4859 81.8772 47.7063 83.8615C46.9031 85.8931 46.2653 87.0447 44.9602 88.7987C44.8302 88.9759 44.7712 89.0232 44.6353 89.1826L43.2888 90.6295C42.6097 91.3028 42.2081 91.4268 42.2081 92.7261C42.2081 93.5942 42.7632 94.3088 43.466 94.5923C43.655 94.669 44.092 94.8108 44.346 94.8108Z" fill="white"/>
<path fill-rule="evenodd" clip-rule="evenodd" d="M84.5225 96.6179C83.6071 96.6179 83.0992 96.4349 82.4791 95.8088C81.6759 94.9998 81.6051 94.8108 81.0676 93.8777C80.8196 93.4525 80.8432 93.4525 80.6602 92.9682C79.7389 90.5114 80.1464 87.6412 81.0204 85.338C81.5873 83.8438 82.1366 83.0111 83.052 81.7709L84.4044 80.3299C84.5697 80.2 84.6052 80.1763 84.7528 80.0228C85.3375 79.444 87.0383 78.4991 87.8415 78.1802C88.4025 77.9558 89.4242 77.7077 90.1683 77.7077C90.1683 78.694 90.0148 79.6389 89.9498 80.5602C89.879 81.6646 89.3829 84.9836 89.1939 85.9463C89.1112 86.401 89.0344 86.7731 88.9577 87.2396C88.7569 88.409 87.7883 92.4662 87.493 93.4466C87.2686 94.1611 86.8848 94.9761 86.43 95.4545C86.0521 95.8443 86.2942 95.7439 85.6328 96.1927C85.3375 96.3876 84.989 96.6179 84.5225 96.6179ZM84.1386 101C85.9162 101 86.7726 100.693 88.1309 99.7834C88.6329 99.4527 88.9695 99.1574 89.3888 98.744C89.5128 98.6141 89.5305 98.5964 89.6427 98.4487C90.3219 97.5806 90.7471 97.0491 91.2255 95.9211L91.5916 95.1356L92.3062 92.3422C92.6842 90.9307 93.2452 88.1432 93.5051 86.5782C94.3496 81.4992 94.6449 78.2511 94.6626 72.7233C94.6685 72.2863 94.6035 72.0796 94.6094 71.6839C94.6212 68.8137 94.1665 64.6029 93.7 61.7918C93.5936 61.1362 93.4637 60.652 93.0917 60.2681C92.442 59.6007 92.1409 59.5122 91.2668 59.5122C90.7471 59.5122 90.251 59.7838 89.9026 60.1204C88.9577 61.024 89.2648 62.1048 89.436 63.1028L89.8081 65.849C89.9321 66.729 89.9853 67.857 90.0975 68.6838L90.2215 70.9161C90.2215 71.2705 90.2746 71.3886 90.2805 71.678C90.2865 71.9319 90.2746 72.1977 90.2746 72.4516C90.2805 72.7646 90.3337 72.865 90.3337 73.2135C88.4852 73.2135 85.7745 74.0875 84.239 75.0147C83.4004 75.5167 82.172 76.3435 81.4929 77.0404C81.3334 77.2058 81.2389 77.2471 81.0854 77.3947C80.9377 77.5306 80.8078 77.6605 80.672 77.8022C80.5184 77.9617 80.4771 78.0562 80.3176 78.2156C80.1404 78.3928 80.0873 78.4637 79.9338 78.6527C79.1601 79.6035 78.9062 79.9401 78.2979 80.9677L77.7427 82.0012C76.5616 84.0978 75.5931 87.7298 75.8057 90.2634C75.9002 91.4032 75.8057 91.8461 76.1482 93.0981C76.6088 94.7753 77.1581 96.0392 78.1443 97.4625C78.3687 97.7873 78.5991 98.0294 78.8471 98.3483C78.9239 98.4487 78.9416 98.4664 79.0302 98.5432C79.0833 98.5905 79.0774 98.5786 79.1247 98.62C79.8924 99.311 80.4653 99.9192 81.5933 100.368C82.0007 100.528 82.2901 100.699 82.739 100.811C83.1169 100.911 83.7075 101 84.1386 101Z" fill="white"/>
<path fill-rule="evenodd" clip-rule="evenodd" d="M55.3069 38.907C55.3069 35.588 56.3345 29.4874 57.1495 26.2274C57.2854 25.6723 57.9173 23.0619 58.0826 22.6721C58.3484 22.0579 58.7263 21.4319 59.1338 20.924C59.7185 20.1976 60.5926 19.6602 61.567 19.9378C63.5986 20.5165 64.9982 23.245 65.2285 25.3711C65.3644 26.6467 65.2935 27.3436 65.1045 28.6428C64.9982 29.3811 64.638 30.8102 64.3131 31.4717C64.0297 32.0623 63.7816 32.7119 63.3978 33.2966C62.8958 34.0466 62.9135 34.082 62.2698 34.9088C61.502 35.8892 59.9843 37.2593 58.8327 37.8322C57.0196 38.7299 55.4782 38.8303 55.3069 38.907ZM53.8246 56.9963C54.6101 56.9963 55.0471 56.8428 55.4841 56.4057C55.8975 55.9982 56.1397 55.6144 56.1987 54.9765C56.246 54.4214 56.0511 53.7718 55.9389 53.1812C55.8207 52.5434 55.7617 51.9882 55.6672 51.3209L55.1416 45.4329C55.1298 44.7242 55.1416 44.0037 55.1416 43.295C56.9546 43.1414 58.1476 42.8698 59.7835 42.1788L60.4803 41.8835C61.319 41.4642 61.4902 41.3756 62.3111 40.8146C62.7363 40.5252 63.5749 39.8874 63.9234 39.5271C64.136 39.3086 64.4372 39.1019 64.6911 38.8125C66.1144 37.2003 67.1184 35.8538 68.0278 33.8694C68.1341 33.6332 68.2109 33.4442 68.3231 33.1784C69.0672 31.3949 69.6696 29.2452 69.6696 26.7412C69.6696 24.6683 69.1854 22.4772 68.3349 20.7882C67.8566 19.8433 67.0888 18.6503 66.3388 17.9062C65.1045 16.6778 63.2324 15.5085 61.3898 15.5085C59.8012 15.5085 58.6082 15.851 57.3149 16.6896C56.4704 17.2389 55.5845 18.2783 55.0117 19.0992C54.7932 19.4122 54.1199 20.5933 53.9723 20.9713L53.5943 22.4005C53.2931 23.6289 52.9329 24.8514 52.6435 26.1624C52.4958 26.8239 52.4131 27.4204 52.2596 28.0818C52.1001 28.761 52.0057 29.3397 51.8934 30.072C51.799 30.698 51.6513 31.389 51.545 32.08C50.9485 35.966 50.7773 39.9464 50.7596 44.1159C50.7536 44.5352 50.8127 44.7124 50.8127 45.1021C50.8127 45.4329 50.795 45.8167 50.8127 46.1416C50.8245 46.3837 50.8599 46.3719 50.8659 46.6317C50.919 48.4212 51.108 49.4133 51.2497 51.0788C51.3619 52.3721 51.5745 53.5474 51.7694 54.7758C51.8816 55.5022 51.9761 55.8683 52.3836 56.2994C52.7025 56.6302 53.2045 56.9963 53.8246 56.9963Z" fill="white"/>
<path fill-rule="evenodd" clip-rule="evenodd" d="M106.173 83.956L106.763 80.1055C106.828 79.6212 106.84 79.2137 106.911 78.7176C106.97 78.2924 107.017 77.7668 107.047 77.377C107.135 76.3376 107.271 74.873 107.271 73.869C107.271 73.5383 107.324 73.4733 107.324 73.1603C107.667 73.0836 108.004 72.9772 108.322 72.9005C108.689 72.806 109.008 72.7174 109.35 72.6052C109.651 72.5048 109.976 72.4221 110.307 72.304C110.643 72.1918 110.927 72.0619 111.234 71.9201C111.388 71.8493 111.523 71.7961 111.659 71.737C111.724 71.7075 111.813 71.6721 111.884 71.6366L113.773 70.5618C114.063 70.3846 114.27 70.1897 114.565 70.0362C114.565 70.5618 114.494 70.8512 114.453 71.3C114.388 72.0678 114.027 74.1584 113.833 74.8435C113.023 77.5896 112.693 78.818 110.974 81.0327L110.277 81.7591C110.136 81.8713 110.053 81.9835 109.917 82.1075C109.492 82.4855 108.742 82.958 108.24 83.2296C107.98 83.3714 107.543 83.5308 107.265 83.6253L106.173 83.956ZM119 66.3746L119 67.7802C118.994 68.6838 118.976 69.481 118.941 69.8118L118.817 71.3295C118.439 73.9399 118.451 74.2234 117.783 76.8219C117.559 77.7077 117.535 77.6841 117.27 78.4991C116.921 79.5621 116.443 80.5484 115.917 81.5288C115.12 83.0111 113.779 84.6411 112.451 85.6805L111.199 86.5723C109.716 87.3695 109.952 87.3046 108.157 87.9129C106.604 88.4385 105.057 88.5034 103.433 88.5034C102.104 88.5034 100.97 87.2691 101.324 85.9049C101.36 85.775 101.377 85.651 101.401 85.5447L102.346 79.9637C102.747 77.1349 102.889 74.8848 102.889 71.9556L102.83 69.8177C102.836 69.4988 102.789 69.4161 102.777 69.1621L102.612 66.4219C102.511 65.158 102.281 63.7879 102.175 62.53C102.098 61.6205 101.879 60.6697 102.322 59.8783C102.452 59.6421 102.588 59.4708 102.783 59.2995C103.58 58.6322 104.626 58.4491 105.488 59.1047C105.777 59.3232 106.055 59.6303 106.214 59.9728C106.439 60.4453 106.704 63.3568 106.817 64.2427L107.218 68.6129C107.448 68.5952 107.844 68.4653 108.045 68.4003C109.728 67.8865 111.169 67.101 112.563 66.0144L114.47 64.408C114.594 64.2545 114.571 64.2781 114.565 64.0123L114.411 62.1875C114.37 61.8508 114.37 61.6087 114.329 61.2839C114.163 60.0614 114.187 59.524 115.179 58.709C116.041 58.0062 117.594 58.2188 118.303 59.335C118.628 59.8606 118.699 60.8055 118.776 61.5496C118.864 62.4001 118.876 63.2859 118.947 64.1186C118.976 64.4907 118.994 65.3884 119 66.3746Z" fill="white"/>
<path fill-rule="evenodd" clip-rule="evenodd" d="M37.1056 87.3577C38.0209 87.3577 38.6824 87.3046 39.5505 87.1156C40.1706 86.9739 40.7907 86.7494 41.2927 86.4955C42.4266 85.9285 43.4719 85.2021 44.3282 84.2749C44.4523 84.1391 44.47 84.08 44.6058 83.9442C45.8755 82.639 47.1393 80.0523 47.1393 78.2038C47.1393 77.2648 47.2102 76.1191 46.8795 75.2805C45.9169 72.8414 45.1491 71.8138 42.6805 70.7154C40.7966 69.8708 38.9304 70.0421 36.9815 70.296L34.8082 70.4201C33.255 70.4201 32.3574 70.0244 31.6014 68.7428C31.4479 68.483 31.3947 68.3885 31.2884 68.0696C30.9105 66.918 30.7274 65.9317 31.2766 64.8096C31.3888 64.5793 31.5129 64.3962 31.6959 64.2427C31.8908 64.0832 32.0857 63.9474 32.3219 63.8234C33.3141 63.3214 34.3889 63.1973 35.7886 63.2977C37.1587 63.3981 39.2021 63.971 40.395 64.7742C40.7966 65.0399 41.2218 65.3766 41.8774 65.3766C43.9562 65.3766 45.1491 62.5477 42.8931 61.1835C42.1608 60.7406 41.7297 60.4098 40.8439 60.0555C38.4521 59.0988 37.3831 58.9098 34.5838 58.9098C32.8948 58.9098 30.8514 59.4295 29.5522 60.398C29.3632 60.5398 29.1742 60.6283 29.0088 60.7878C27.9281 61.8095 27.2312 62.7721 26.871 64.2368C26.3395 66.3628 26.5284 67.857 27.3493 69.9299C27.8395 71.1642 28.808 72.5166 29.8711 73.3257C31.5365 74.5954 33.4086 74.8139 35.4638 74.7549L37.1469 74.625C37.4894 74.5777 37.8674 74.6131 38.2572 74.5836C38.6174 74.5541 38.9422 74.4773 39.3556 74.4773C41.2218 74.4773 42.8105 75.4163 42.8105 77.3829C42.8105 78.6409 42.4207 79.6035 41.6825 80.5838C41.0978 81.3634 40.4127 82.0071 39.5033 82.4619C38.6174 82.8989 37.9501 82.9698 36.9461 82.9698C35.2275 82.9698 33.633 82.0957 32.4873 80.9559C32.0739 80.5425 31.5542 79.8693 31.2766 79.3732C30.9341 78.7531 30.6861 77.7668 30.4321 77.4243C29.0561 75.5699 26.4162 76.562 26.4162 78.694C26.4162 79.1192 26.5284 79.3555 26.6465 79.6744C26.7469 79.9519 26.8592 80.2531 26.9832 80.5425C27.3021 81.2453 27.8513 82.2493 28.3238 82.8221C29.3868 84.1037 29.9065 84.7533 31.4538 85.7218C33.0129 86.7022 35.0622 87.3577 37.1056 87.3577Z" fill="white"/>
<path fill-rule="evenodd" clip-rule="evenodd" d="M105.57 46.4191L106.232 46.4191C108.925 46.4191 112.451 45.2911 113.815 47.6593C114.606 49.0354 115.025 51.4626 113.39 52.5375C112.285 53.258 111.057 53.2107 109.74 53.2107C108.11 53.2107 106.303 52.567 105.068 51.7461C104.566 51.4095 104.224 51.1319 103.492 51.1319C102.399 51.1319 101.354 52.1182 101.354 53.3761C101.354 54.5809 102.251 55.1655 103.114 55.7207C103.297 55.8388 103.456 55.9037 103.645 56.0159C104.454 56.512 106.368 57.138 107.319 57.327C109.315 57.7227 111.766 57.7168 113.773 57.138C114.89 56.8191 115.539 56.4471 116.348 55.8211C116.596 55.6262 117.122 55.0947 117.305 54.8584C117.813 54.197 117.529 54.5809 117.872 54.0021C118.51 52.9391 118.894 51.5335 118.894 50.1456C118.894 48.6101 118.303 46.6908 117.553 45.4506C117.429 45.2439 117.305 45.0667 117.163 44.86C116 43.1828 113.762 41.7595 111.11 41.7595L110.23 41.7595C108.328 41.7595 104.885 42.5863 103.61 41.3047C103.332 41.0272 103.125 40.8618 102.936 40.5016C102.175 39.0133 102.866 37.2888 103.698 36.0486C104.561 34.7553 106.167 33.5387 107.986 33.5387C109.958 33.5387 112.22 34.4777 113.378 36.0368C114.098 36.9995 114.281 37.2593 114.707 38.4936C114.783 38.7298 114.878 38.9365 115.014 39.1137C116.549 41.0685 119 39.8106 119 37.9798C119 36.7869 118.144 35.21 117.553 34.3242C117.4 34.0879 117.24 33.8753 117.075 33.6568C116.898 33.4147 116.709 33.2139 116.537 32.9895C116.319 32.706 115.622 32.0564 115.309 31.8083C114.925 31.5071 114.004 30.8339 113.555 30.5976C111.228 29.3515 108.576 28.7373 105.954 29.4283C104.07 29.9244 102.7 30.6803 101.312 32.0741C100.503 32.8773 99.7828 33.8989 99.269 34.9088C98.2532 36.8813 97.7749 40.2594 98.9619 42.226C99.2218 42.6513 99.1746 42.7103 99.6175 43.3836C99.9246 43.8442 100.285 44.2104 100.704 44.547C101.271 45.0017 101.259 45.0313 101.98 45.4624C102.789 45.9467 104.442 46.4191 105.57 46.4191Z" fill="white"/>
<path fill-rule="evenodd" clip-rule="evenodd" d="M70.2189 57.705C72.1914 57.705 74.53 57.327 76.3903 56.8605L79.0597 56.0219C81.2625 55.1006 80.7192 51.7874 78.2742 51.7874C77.6896 51.7874 73.7977 53.2698 70.709 53.2698C69.1676 53.2698 67.9747 53.2521 66.6636 52.5434C66.4274 52.4135 66.3388 52.3131 66.1262 52.1477C65.0809 51.3268 65.0514 49.3602 65.8309 48.0078C65.8959 47.9015 66.014 47.7184 66.0967 47.6121C66.8999 46.6022 69.6224 44.4525 70.461 43.3718C70.5791 43.2182 70.6559 43.1651 70.7799 43.0351C70.8803 42.917 70.9689 42.793 71.0693 42.669C72.1973 41.228 72.8233 40.2122 73.6146 38.6354C73.6855 38.4936 73.7682 38.3401 73.8332 38.1983C74.3942 36.9522 75.0615 35.1273 75.4218 33.8104C75.6167 33.1194 75.7643 32.4402 75.9474 31.7079C76.1364 30.9756 76.2486 30.1901 76.3962 29.4696C76.5498 28.7078 77.2407 23.5993 77.2348 22.3591C77.2289 21.4792 77.3411 20.7705 77.3411 19.7252C77.3411 18.2546 75.4218 16.8668 73.715 18.2901C73.6146 18.3787 73.4611 18.5795 73.3961 18.6858C72.9709 19.3826 73.0477 20.1504 73.0123 21.2075C72.9827 22.2824 72.6225 25.5187 72.4807 26.4872C72.1205 28.9795 71.7189 31.1941 70.9216 33.5859C70.4846 34.897 69.894 36.4089 69.1795 37.5959C68.5357 38.6649 68.4944 38.7476 67.7326 39.7693C67.3487 40.289 66.4628 41.228 66.0081 41.665L64.4726 43.0351C63.5159 44.0037 63.3446 43.9978 62.3111 45.2557C60.6398 47.2696 60.4744 50.937 61.5906 53.2875C62.2225 54.6104 63.5454 55.886 64.8329 56.512C65.0632 56.6242 65.2935 56.7483 65.5829 56.8605C66.9353 57.3802 68.5771 57.705 70.2189 57.705Z" fill="white"/>
<path fill-rule="evenodd" clip-rule="evenodd" d="M67.2542 64.6679C68.0101 64.6679 68.4117 64.4966 69.1795 64.2367C70.4433 63.8115 72.9945 63.2446 74.3292 63.2446C76.1009 63.2446 76.5143 63.1737 78.2565 63.7525C79.1365 64.0478 79.9278 64.9513 80.1109 65.79C80.3294 66.8176 80.0578 68.04 79.414 68.8196C78.8294 69.5283 78.4573 69.7941 77.8195 70.3551C77.6778 70.4791 77.5833 70.6031 77.4415 70.739L76.2072 71.8611C75.2151 72.8473 75.1797 72.93 74.341 73.8867L73.9808 74.3474C73.7328 74.6545 73.5438 74.9439 73.3194 75.2746C72.3922 76.6683 71.7898 77.8259 71.1697 79.3791C70.148 81.9481 69.9944 82.7749 69.3389 85.4384C69.0968 86.4364 68.5475 89.7732 68.4649 90.8126C68.3172 92.7615 68.0219 94.6809 68.0219 96.6711C68.0219 97.7046 68.955 98.809 70.1067 98.809C70.8449 98.809 71.2346 98.7027 71.7366 98.1948C71.9138 98.0117 72.0496 97.8818 72.1737 97.6396C72.5103 96.9664 72.3803 95.7911 72.4689 94.982C72.5339 94.4387 72.593 93.7241 72.6284 93.1631C72.6638 92.5843 72.7465 91.9465 72.7937 91.3559C72.8941 90.1984 73.3725 87.4758 73.6265 86.2711C73.8745 85.1017 74.1343 84.3104 74.4592 83.1587C74.8607 81.7355 75.7938 79.6507 76.5852 78.381C76.7269 78.1507 76.8096 77.9735 76.9573 77.7668C77.099 77.566 77.2171 77.4066 77.3648 77.1821C77.6541 76.7451 78.1207 76.2254 78.4809 75.8356C78.8471 75.4399 79.1188 75.0324 79.6916 74.5777L82.7508 71.7193C83.3591 70.9988 83.8906 70.2311 84.2036 69.2212C84.6583 67.7389 84.676 65.6718 84.1799 64.0773C83.9732 63.3922 83.5658 62.7131 83.1465 62.152C82.987 61.9394 82.8925 61.8036 82.7035 61.6087C81.6464 60.5693 81.0617 60.2208 79.7211 59.6539C79.5558 59.5889 79.5381 59.5653 79.3727 59.5122C77.0222 58.8094 76.6147 58.8566 74.1639 58.8566C72.3272 58.8566 70.3193 59.3468 68.8369 59.7248C68.3645 59.8429 66.8939 60.2681 66.5042 60.463C66.1616 60.6342 65.8723 60.8646 65.6597 61.148C64.8447 62.2347 65.2049 63.8529 66.451 64.4316C66.6282 64.5143 67.0357 64.6679 67.2542 64.6679Z" fill="white"/>
<path fill-rule="evenodd" clip-rule="evenodd" d="M97.8989 87.5762C98.4422 87.5762 99.1391 87.2337 99.4167 86.9561L99.8537 86.3538C100.173 85.7514 100.556 82.5682 100.633 81.7591C100.881 79.1487 101.188 76.6329 101.188 73.7627C101.188 72.9772 101.253 72.4694 101.188 71.7311C101.141 71.111 101.182 70.2429 101.188 69.5992L101.076 67.5735C100.976 65.601 100.793 63.6757 100.521 61.715C100.391 60.8114 100.161 60.209 99.3045 59.7484C98.1174 59.1165 96.5524 59.7897 96.2394 61.1421C96.0799 61.839 96.393 63.404 96.4697 64.3431C96.9186 69.7822 97.0662 73.745 96.4815 79.196C96.3103 80.8201 96.1685 82.1193 95.9028 83.7139C95.6961 84.9482 95.4303 86.0112 96.3516 86.9325C96.7296 87.3105 97.3083 87.5762 97.8989 87.5762Z" fill="white"/>
<path fill-rule="evenodd" clip-rule="evenodd" d="M47.0271 57.0495C48.4209 57.0495 49.2772 56.1045 49.2772 54.6931C49.2772 54.2324 49.165 53.8781 49.0941 53.447C48.8933 52.2186 48.5685 49.4311 48.5095 48.2263C48.4386 46.7617 48.3441 45.3207 48.3441 43.8383L48.5744 38.8066C48.6276 38.2987 48.6867 37.7613 48.7339 37.2121C48.8166 36.2199 48.9819 35.0742 49.1709 34.147L49.7674 31.1823C49.7674 30.2492 49.2123 29.4992 48.415 29.1921C47.5055 28.8318 46.7082 28.9558 46.0291 29.635C45.3795 30.2787 45.1787 31.9382 45.0192 32.895C44.907 33.521 44.7889 34.1175 44.6885 34.7021L44.0743 40.4484C43.9739 41.6059 44.0152 43.5548 44.0152 44.7183C44.0152 47.24 44.2633 49.5905 44.5172 51.8878C44.6471 53.0277 44.8243 54.1438 45.0015 55.2423C45.1669 56.2699 46.0586 57.0495 47.0271 57.0495Z" fill="white"/>
<path fill-rule="evenodd" clip-rule="evenodd" d="M95.8142 96.8364C96.706 96.8364 97.5032 96.2459 97.8221 95.4427C97.9107 95.2183 97.9403 95.0411 98.017 94.8167C98.082 94.6041 98.1588 94.3678 98.2237 94.1434C98.4009 93.5115 98.6312 92.0823 98.8202 91.291C99.3812 88.8991 96.6233 87.5467 95.135 89.1413C94.6626 89.6492 94.6685 89.9799 94.4795 90.7299L93.8653 93.5174C93.6704 94.297 93.6232 93.9072 93.6232 94.8108C93.6232 95.4014 93.9834 95.9152 94.2905 96.2223C94.6035 96.5293 95.2236 96.8364 95.8142 96.8364Z" fill="white"/>
<path fill-rule="evenodd" clip-rule="evenodd" d="M48.7811 28.0582C50.4052 28.0582 50.8481 26.5876 51.1021 25.2766C51.1375 25.0699 51.167 24.8277 51.2202 24.5738C51.2674 24.3198 51.3324 24.125 51.3915 23.871C51.7517 22.4536 52.295 21.2488 50.9308 20.1563C49.9328 19.359 48.6276 19.7134 48.037 20.4043C47.6768 20.8354 47.4642 21.4437 47.3165 22.0402C47.0331 23.1446 46.9327 23.8651 46.7023 24.9399C46.537 25.749 46.348 26.7353 47.1984 27.4499C47.4878 27.6861 47.4405 27.7334 47.8717 27.8751C48.1138 27.9519 48.4918 28.0582 48.7811 28.0582Z" fill="white"/>
</svg>
